<svg xmlns="http://www.w3.org/2000/svg" style="display:none">
    <symbol id="logo" viewBox="0 0 54.21 9.89">
            <path d="M1,1.33H2.07v6.6a3.94,3.94,0,0,0,.07.82,1.53,1.53,0,0,0,.22.54.85.85,0,0,0,.35.3,1.12,1.12,0,0,0,.47.09,1.12,1.12,0,0,0,.47-.09A.85.85,0,0,0,4,9.3a1.53,1.53,0,0,0,.22-.54,3.94,3.94,0,0,0,.07-.82V1.33H5.38V8.07a4.37,4.37,0,0,1-.15,1.22,2.24,2.24,0,0,1-.43.84,1.72,1.72,0,0,1-.69.49,2.53,2.53,0,0,1-.92.16,2.53,2.53,0,0,1-.92-.16,1.72,1.72,0,0,1-.69-.49,2.24,2.24,0,0,1-.43-.84A4.37,4.37,0,0,1,1,8.07Z" transform="translate(-0.98 -0.98)"/>
            <path d="M7.34,9.27a5.24,5.24,0,0,0,.6.3,1.73,1.73,0,0,0,.69.13,1.5,1.5,0,0,0,.44-.06,1,1,0,0,0,.37-.2,1,1,0,0,0,.25-.34,1.2,1.2,0,0,0,.09-.5,1.69,1.69,0,0,0,0-.4,2.26,2.26,0,0,0-.16-.44,4.58,4.58,0,0,0-.3-.52Q9.09,7,8.81,6.62l-.76-1A7,7,0,0,1,7.58,5a4.57,4.57,0,0,1-.32-.62,3.1,3.1,0,0,1-.18-.57A2.67,2.67,0,0,1,7,3.26a2.28,2.28,0,0,1,.14-.81,1.82,1.82,0,0,1,.41-.64,1.88,1.88,0,0,1,.65-.42,2.34,2.34,0,0,1,.87-.15,3.07,3.07,0,0,1,.78.1,3,3,0,0,1,.77.33l-.47.91a2.81,2.81,0,0,0-.44-.21,1.46,1.46,0,0,0-.52-.09,1.07,1.07,0,0,0-.77.27,1,1,0,0,0-.29.77,1.39,1.39,0,0,0,0,.28,1.62,1.62,0,0,0,.1.31,3,3,0,0,0,.2.38q.13.21.32.46L9.9,6.17l.4.55a3.91,3.91,0,0,1,.32.54,3.13,3.13,0,0,1,.21.59,2.66,2.66,0,0,1,.08.67,2.5,2.5,0,0,1-.17.95,2,2,0,0,1-.47.71,2.07,2.07,0,0,1-.72.45,2.62,2.62,0,0,1-.92.16,3.16,3.16,0,0,1-1-.15,3.11,3.11,0,0,1-.81-.39Z" transform="translate(-0.98 -0.98)"/>
            <path d="M12.38,1.23a5,5,0,0,1,1.75.4,4,4,0,0,1,1.34,1,4.23,4.23,0,0,1,.86,1.47,5.83,5.83,0,0,1,.3,2,5.83,5.83,0,0,1-.3,2,4.23,4.23,0,0,1-.86,1.47,4,4,0,0,1-1.34,1,5,5,0,0,1-1.75.4Zm1.09,8.29a2.67,2.67,0,0,0,1.4-1.05,3.6,3.6,0,0,0,.47-1A5.07,5.07,0,0,0,15.52,6a5.07,5.07,0,0,0-.18-1.43,3.6,3.6,0,0,0-.47-1,2.67,2.67,0,0,0-1.4-1.05Z" transform="translate(-0.98 -0.98)"/>
            <path d="M18.16,1.22a5.47,5.47,0,0,1,1.75.18A3.16,3.16,0,0,1,21.14,2a2.68,2.68,0,0,1,.73,1,3.72,3.72,0,0,1,.24,1.37A3.64,3.64,0,0,1,21.79,6a2.63,2.63,0,0,1-1,1.11l1.62,3.56H21.21L19.88,7.52a4.26,4.26,0,0,1-.62.12v3H18.16Zm1.09,5.32a2.19,2.19,0,0,0,.69-.18,1.56,1.56,0,0,0,.54-.4,1.88,1.88,0,0,0,.36-.64A2.69,2.69,0,0,0,21,4.45a2.69,2.69,0,0,0-.13-.87,1.88,1.88,0,0,0-.36-.64,1.56,1.56,0,0,0-.54-.4,2.19,2.19,0,0,0-.69-.18Z" transform="translate(-0.98 -0.98)"/>
            <path d="M23.67,1.33h3.14v1H24.76V6h1.76V7H24.76V9.64h2.05v1H23.67Z" transform="translate(-0.98 -0.98)"/>
            <path d="M30.38,1l2.71,9.62H31.92l-.41-1.55H29.24l-.4,1.55H27.67Zm.86,7-.63-2.41-.24-1.11-.23,1.11-.63,2.41Z" transform="translate(-0.98 -0.98)"/>
            <path d="M34.25,1l2.7,4.95L39.65,1v9.69H38.56V6.28l0-1.18L38,6.3,37,8.14h0l-1-1.85-.62-1.18,0,1.17v4.39H34.25Z" transform="translate(-0.98 -0.98)"/>
            <path d="M41.65,1.33h1.09v9.33H41.65Z" transform="translate(-0.98 -0.98)"/>
            <path d="M44.73,1l2.94,4.89L48.31,7l0-1.12V1.33h1.08v9.53L46.42,6l-.64-1,0,1v4.66H44.73Z" transform="translate(-0.98 -0.98)"/>
            <path d="M54.05,6.28h1.09v4.49a4.05,4.05,0,0,1-1.65-.27,3.63,3.63,0,0,1-1.36-.93A4.52,4.52,0,0,1,51.22,8a6.44,6.44,0,0,1-.34-2.19,6.65,6.65,0,0,1,.26-2,4.68,4.68,0,0,1,.71-1.44,3.06,3.06,0,0,1,1-.89,2.57,2.57,0,0,1,1.21-.3,2.52,2.52,0,0,1,.54.06,3.42,3.42,0,0,1,.57.18l-.49.94a1.33,1.33,0,0,0-.29-.07l-.3,0a1.45,1.45,0,0,0-.76.23,2.18,2.18,0,0,0-.67.67,3.88,3.88,0,0,0-.48,1.1A5.66,5.66,0,0,0,52,5.84a5.8,5.8,0,0,0,.15,1.39,4,4,0,0,0,.42,1.08,2.7,2.7,0,0,0,.64.76,2.35,2.35,0,0,0,.83.43Z" transform="translate(-0.98 -0.98)"/>
    </symbol>
</svg>